{
    "asset" : {
        "generator" : "Khronos glTF Blender I/O v1.8.19",
        "version" : "2.0"
    },
    "scene" : 0,
    "scenes" : [
        {
            "name" : "Scene",
            "nodes" : [
                0
            ]
        }
    ],
    "nodes" : [
        {
            "mesh" : 0,
            "name" : "\u6749\u681102"
        }
    ],
    "materials" : [
        {
            "doubleSided" : true,
            "name" : "AM113_009_Ulmus_Bark",
            "pbrMetallicRoughness" : {
                "baseColorTexture" : {
                    "index" : 0
                },
                "metallicFactor" : 0,
                "roughnessFactor" : 0.5
            }
        },
        {
            "alphaCutoff" : 0.5,
            "alphaMode" : "MASK",
            "doubleSided" : true,
            "name" : "AM113_009_Ulmus",
            "pbrMetallicRoughness" : {
                "baseColorTexture" : {
                    "index" : 1
                },
                "metallicFactor" : 0,
                "roughnessFactor" : 0.5
            }
        }
    ],
    "meshes" : [
        {
            "name" : "AM113_009_Ulmus",
            "primitives" : [
                {
                    "attributes" : {
                        "POSITION" : 0,
                        "NORMAL" : 1,
                        "TEXCOORD_0" : 2
                    },
                    "indices" : 3,
                    "material" : 0
                },
                {
                    "attributes" : {
                        "POSITION" : 4,
                        "NORMAL" : 5,
                        "TEXCOORD_0" : 6
                    },
                    "indices" : 7,
                    "material" : 1
                }
            ]
        }
    ],
    "textures" : [
        {
            "sampler" : 0,
            "source" : 0
        },
        {
            "sampler" : 0,
            "source" : 1
        }
    ],
    "images" : [
        {
            "bufferView" : 4,
            "mimeType" : "image/jpeg",
            "name" : "Image_0"
        },
        {
            "bufferView" : 9,
            "mimeType" : "image/png",
            "name" : "Image_1"
        }
    ],
    "accessors" : [
        {
            "bufferView" : 0,
            "componentType" : 5126,
            "count" : 97,
            "max" : [
                0.1931779980659485,
                5.261135101318359,
                0.18204699456691742
            ],
            "min" : [
                -0.0819069966673851,
                -0.008840999566018581,
                -0.09684400260448456
            ],
            "type" : "VEC3"
        },
        {
            "bufferView" : 1,
            "componentType" : 5126,
            "count" : 97,
            "type" : "VEC3"
        },
        {
            "bufferView" : 2,
            "componentType" : 5126,
            "count" : 97,
            "type" : "VEC2"
        },
        {
            "bufferView" : 3,
            "componentType" : 5123,
            "count" : 300,
            "type" : "SCALAR"
        },
        {
            "bufferView" : 5,
            "componentType" : 5126,
            "count" : 10242,
            "max" : [
                1.473436951637268,
                6.01031494140625,
                1.5645049810409546
            ],
            "min" : [
                -1.3302110433578491,
                0.9726349711418152,
                -1.4294830560684204
            ],
            "type" : "VEC3"
        },
        {
            "bufferView" : 6,
            "componentType" : 5126,
            "count" : 10242,
            "type" : "VEC3"
        },
        {
            "bufferView" : 7,
            "componentType" : 5126,
            "count" : 10242,
            "type" : "VEC2"
        },
        {
            "bufferView" : 8,
            "componentType" : 5123,
            "count" : 29133,
            "type" : "SCALAR"
        }
    ],
    "bufferViews" : [
        {
            "buffer" : 0,
            "byteLength" : 1164,
            "byteOffset" : 0
        },
        {
            "buffer" : 0,
            "byteLength" : 1164,
            "byteOffset" : 1164
        },
        {
            "buffer" : 0,
            "byteLength" : 776,
            "byteOffset" : 2328
        },
        {
            "buffer" : 0,
            "byteLength" : 600,
            "byteOffset" : 3104
        },
        {
            "buffer" : 0,
            "byteLength" : 155456,
            "byteOffset" : 3704
        },
        {
            "buffer" : 0,
            "byteLength" : 122904,
            "byteOffset" : 159160
        },
        {
            "buffer" : 0,
            "byteLength" : 122904,
            "byteOffset" : 282064
        },
        {
            "buffer" : 0,
            "byteLength" : 81936,
            "byteOffset" : 404968
        },
        {
            "buffer" : 0,
            "byteLength" : 58266,
            "byteOffset" : 486904
        },
        {
            "buffer" : 0,
            "byteLength" : 490059,
            "byteOffset" : 545172
        }
    ],
    "samplers" : [
        {
            "magFilter" : 9729,
            "minFilter" : 9987
        }
    ],
    "buffers" : [
        {
            "byteLength" : 1035232,
            "uri" : "data:application/octet-stream;base64,"
        }
    ]
}
